# xmcd CD database file
#
# Track frame offsets:
#	150
#	20728
#	43967
#	61685
#
# Disc length: 1094 seconds
#
# Revision: 0
# Processed by: cddbd v1.5PL3 Copyright (c) Steve Scherf et al.
# Submitted via: CDex 1.50beta9
#
DISCID=30044404
DTITLE=Eliana - 明るい未来
DYEAR=2004
DGENRE=R&B
TTITLE0=明るい未来
TTITLE1=明るい未来 -remix- feat. YOU THE ROCK★
TTITLE2=SHOW ME LOVE
TTITLE3=明るい未来(Instrumental)
EXTD=YEAR: 2004
EXTT0=
EXTT1=
EXTT2=
EXTT3=
PLAYORDER=
